<?xml version="1.0" encoding="utf-8"?>
<!-- Generator: Adobe Illustrator 19.0.0, SVG Export Plug-In . SVG Version: 6.00 Build 0)  -->
<svg version="1.1" id="Layer_1" xmlns="http://www.w3.org/2000/svg" xmlns:xlink="http://www.w3.org/1999/xlink" x="0px" y="0px"
	 viewBox="0 0 612 792" style="enable-background:new 0 0 612 792;" xml:space="preserve">
<style type="text/css">
	.st0{fill:#010101;}
</style>
<path id="XMLID_2_" class="st0" d="M322,221c0-8.8-7.2-16-16-16s-16,7.2-16,16v313.4l-28.7-28.7c-6.2-6.2-16.4-6.2-22.6,0
	c-6.2,6.2-6.2,16.4,0,22.6l56,56c6.2,6.2,16.4,6.2,22.6,0l56-56c3.1-3.1,4.7-7.2,4.7-11.3s-1.6-8.2-4.7-11.3
	c-6.2-6.2-16.4-6.2-22.6,0L322,534.4L322,221L322,221z"/>
</svg>
