<?xml version="1.0" encoding="utf-8"?>
<!-- Generator: Adobe Illustrator 19.0.0, SVG Export Plug-In . SVG Version: 6.00 Build 0)  -->
<svg version="1.1" id="Layer_1" xmlns="http://www.w3.org/2000/svg" xmlns:xlink="http://www.w3.org/1999/xlink" x="0px" y="0px"
	 viewBox="0 0 612 792" style="enable-background:new 0 0 612 792;" xml:space="preserve">
<style type="text/css">
	.st0{fill:#010101;}
</style>
<path id="XMLID_2_" class="st0" d="M482,413c8.8,0,16-7.2,16-16c0-8.8-7.2-16-16-16l-313.4,0l28.7-28.7c6.2-6.2,6.2-16.4,0-22.6
	c-6.2-6.2-16.4-6.2-22.6,0l-56,56c-6.2,6.2-6.2,16.4,0,22.6l56,56c3.1,3.1,7.2,4.7,11.3,4.7s8.2-1.6,11.3-4.7
	c6.2-6.2,6.2-16.4,0-22.6L168.6,413L482,413L482,413z"/>
</svg>
