<?xml version="1.0" encoding="utf-8"?>
<!-- Generator: Adobe Illustrator 19.0.0, SVG Export Plug-In . SVG Version: 6.00 Build 0)  -->
<svg version="1.1" id="Layer_1" xmlns="http://www.w3.org/2000/svg" xmlns:xlink="http://www.w3.org/1999/xlink" x="0px" y="0px"
	 viewBox="0 0 612 792" style="enable-background:new 0 0 612 792;" xml:space="preserve">
<style type="text/css">
	.st0{fill:#010101;}
</style>
<path id="XMLID_2_" class="st0" d="M53.4,331.9c-5,0-9.1,4.1-9.1,9.1s4.1,9.1,9.1,9.1h468.4l-16.2,16.2c-3.5,3.5-3.5,9.3,0,12.8
	c3.5,3.5,9.3,3.5,12.8,0l31.7-31.7c3.5-3.5,3.5-9.3,0-12.8l-31.7-31.7c-1.8-1.8-4.1-2.7-6.4-2.7c-2.3,0-4.6,0.9-6.4,2.7
	c-3.5,3.5-3.5,9.3,0,12.8l16.2,16.2H53.4L53.4,331.9z"/>
</svg>
