<?xml version="1.0" encoding="utf-8"?>
<!-- Generator: Adobe Illustrator 19.0.0, SVG Export Plug-In . SVG Version: 6.00 Build 0)  -->
<svg version="1.1" id="Layer_1" xmlns="http://www.w3.org/2000/svg" xmlns:xlink="http://www.w3.org/1999/xlink" x="0px" y="0px"
	 viewBox="0 0 612 792" style="enable-background:new 0 0 612 792;" xml:space="preserve">
<style type="text/css">
	.st0{fill:#010101;}
</style>
<path class="st0" d="M130,413h313.4l-28.7,28.7c-6.2,6.2-6.2,16.4,0,22.6c3.1,3.1,7.2,4.7,11.3,4.7s8.2-1.6,11.3-4.7l56-56
	c6.2-6.2,6.2-16.4,0-22.6l-56-56c-6.2-6.2-16.4-6.2-22.6,0c-6.2,6.2-6.2,16.4,0,22.6l28.7,28.7H130c-8.8,0-16,7.2-16,16
	C114,405.8,121.2,413,130,413L130,413z"/>
</svg>
