<?xml version="1.0" encoding="utf-8"?>
<!-- Generator: Adobe Illustrator 19.0.0, SVG Export Plug-In . SVG Version: 6.00 Build 0)  -->
<svg version="1.1" id="Layer_1" xmlns="http://www.w3.org/2000/svg" xmlns:xlink="http://www.w3.org/1999/xlink" x="0px" y="0px"
	 viewBox="-49 141 512 512" style="enable-background:new -49 141 512 512;" xml:space="preserve">
<style type="text/css">
	.st0{fill:#666666;}
</style>
<g>
	<g>
		<path d="M207,141c-105.9,0-192,86.1-192,192c0,79.4,49.4,150.8,123.4,179.2l58.8,134.4c1.7,3.9,5.5,6.4,9.8,6.4
			c4.2,0,8.1-2.5,9.8-6.4l58.8-134.4C349.6,483.8,399,412.4,399,333C399,227.1,312.9,141,207,141z M207,439.7
			c-58.8,0-106.7-47.9-106.7-106.7S148.2,226.3,207,226.3S313.7,274.2,313.7,333S265.8,439.7,207,439.7z"/>
	</g>
</g>
<g>
	<path class="st0" d="M206.5,455.5C139,455.5,84,400.5,84,333s55-122.5,122.5-122.5S329,265.5,329,333S274,455.5,206.5,455.5z
		 M206.5,257c-41.9,0-76,34.1-76,76s34.1,76,76,76s76-34.1,76-76S248.4,257,206.5,257z"/>
</g>
</svg>
