<?xml version="1.0" encoding="utf-8"?>
<!-- Generator: Adobe Illustrator 19.0.0, SVG Export Plug-In . SVG Version: 6.00 Build 0)  -->
<svg version="1.1" id="Layer" xmlns="http://www.w3.org/2000/svg" xmlns:xlink="http://www.w3.org/1999/xlink" x="0px" y="0px"
	 viewBox="-49 141 512 512" style="enable-background:new -49 141 512 512;" xml:space="preserve">
<path d="M219.8,308c-41.6,0-76.1,30.5-82.3,70.4h84.1l-21.8-21.8c-4.7-4.7-4.7-12.4,0-17.2c4.7-4.7,12.4-4.7,17.2,0l42.5,42.5
	c4.7,4.7,4.7,12.4,0,17.2L217,441.6c-2.4,2.4-5.5,3.6-8.6,3.6s-6.2-1.2-8.6-3.6c-4.7-4.7-4.7-12.4,0-17.2l21.8-21.8h-84.3
	c5.6,40.6,40.3,71.9,82.5,71.9c46,0,83.3-37.3,83.3-83.3S265.7,308,219.8,308z"/>
</svg>
